HIERARCHY
ROOT joint_Root
{
	OFFSET 0.0 0.0 0.0
	CHANNELS 6 Xposition Yposition Zposition Zrotation Xrotation Yrotation 
	JOINT Hips
	{
		OFFSET -17.1583 93.1646 452.98
		CHANNELS 6 Xposition Yposition Zposition Zrotation Xrotation Yrotation 
		JOINT Spine
		{
			OFFSET 15.7357 0.0 0.0
			CHANNELS 6 Xposition Yposition Zposition Zrotation Xrotation Yrotation 
			JOINT Chest
			{
				OFFSET 8.98455 -0.406207 0.0
				CHANNELS 6 Xposition Yposition Zposition Zrotation Xrotation Yrotation 
				JOINT Neck
				{
					OFFSET 16.3773 0.0 0.0
					CHANNELS 6 Xposition Yposition Zposition Zrotation Xrotation Yrotation 
					JOINT Head
					{
						OFFSET 6.45672 0.0 0.0
						CHANNELS 6 Xposition Yposition Zposition Zrotation Xrotation Yrotation 
						End Site
						{
							OFFSET 0.0 0.0 0.0
						}
					}
				}
				JOINT Shoulder_L
				{
					OFFSET 12.9942 -0.242716 4.98039
					CHANNELS 6 Xposition Yposition Zposition Zrotation Xrotation Yrotation 
					JOINT UpperArm_L
					{
						OFFSET 5.34809 0.0 0.0
						CHANNELS 6 Xposition Yposition Zposition Zrotation Xrotation Yrotation 
						JOINT LowerArm_L
						{
							OFFSET 24.3286 1.87007e-05 0.0
							CHANNELS 6 Xposition Yposition Zposition Zrotation Xrotation Yrotation 
							JOINT Hand_L
							{
								OFFSET 22.2916 0.0 0.0
								CHANNELS 6 Xposition Yposition Zposition Zrotation Xrotation Yrotation 
								End Site
								{
									OFFSET 0.0 0.0 0.0
								}
							}
						}
					}
				}
				JOINT Shoulder_R
				{
					OFFSET 12.9945 -0.242716 -4.98039
					CHANNELS 6 Xposition Yposition Zposition Zrotation Xrotation Yrotation 
					JOINT UpperArm_R
					{
						OFFSET -5.34813 0.0 0.0
						CHANNELS 6 Xposition Yposition Zposition Zrotation Xrotation Yrotation 
						JOINT LowerArm_R
						{
							OFFSET -24.3289 0.000322201 0.0
							CHANNELS 6 Xposition Yposition Zposition Zrotation Xrotation Yrotation 
							JOINT Hand_R
							{
								OFFSET -22.2915 -0.000108084 0.0
								CHANNELS 6 Xposition Yposition Zposition Zrotation Xrotation Yrotation 
								End Site
								{
									OFFSET 0.0 0.0 0.0
								}
							}
						}
					}
				}
			}
		}
		JOINT UpperLeg_L
		{
			OFFSET -2.19248 -6.46944 0.0
			CHANNELS 6 Xposition Yposition Zposition Zrotation Xrotation Yrotation 
			JOINT LowerLeg_L
			{
				OFFSET 39.0811 0.0 -1.23785e-05
				CHANNELS 6 Xposition Yposition Zposition Zrotation Xrotation Yrotation 
				JOINT Foot_L
				{
					OFFSET 40.9854 0.0 -1.26872e-05
					CHANNELS 6 Xposition Yposition Zposition Zrotation Xrotation Yrotation 
					JOINT Toes_L
					{
						OFFSET 11.7543 0.0 0.0
						CHANNELS 6 Xposition Yposition Zposition Zrotation Xrotation Yrotation 
						End Site
						{
							OFFSET 0.0 0.0 0.0
						}
					}
				}
			}
		}
		JOINT UpperLeg_R
		{
			OFFSET -2.19251 6.46944 0.0
			CHANNELS 6 Xposition Yposition Zposition Zrotation Xrotation Yrotation 
			JOINT LowerLeg_R
			{
				OFFSET -39.0811 -0.00228153 -0.0401928
				CHANNELS 6 Xposition Yposition Zposition Zrotation Xrotation Yrotation 
				JOINT Foot_R
				{
					OFFSET -40.9854 0.0 0.0
					CHANNELS 6 Xposition Yposition Zposition Zrotation Xrotation Yrotation 
					JOINT Toes_R
					{
						OFFSET -11.7543 0.0 0.0
						CHANNELS 6 Xposition Yposition Zposition Zrotation Xrotation Yrotation 
						End Site
						{
							OFFSET 0.0 0.0 0.0
						}
					}
				}
			}
		}
	}
}
MOTION
Frames:	4
Frame Time:	0.0333333
0.000000 0.000000 0.000000 0.000000 0.000000 -0.000000 -3.807700 92.131400 -0.755711 87.215100 2.354300 6.883490 15.735700 0.000005 -0.000001 87.172500 86.085300 -86.088500 8.984550 -0.406207 -0.000000 0.059056 -0.458993 2.166950 16.377300 -0.000001 -0.000001 10.589400 0.842574 -1.411040 6.456720 -0.000001 -0.000000 -4.054180 -1.018520 4.564970 12.994200 -0.242716 4.980390 -93.567800 9.844090 -69.963600 5.348090 -0.000007 -0.000001 -71.285500 16.786300 -0.442760 24.328600 0.000019 0.000005 13.192900 27.552900 -26.874600 22.291600 -0.000001 0.000005 -8.385760 5.048430 6.271910 12.994500 -0.242716 -4.980390 87.345100 7.295030 -69.938600 -5.348130 -0.000001 -0.000004 -68.944900 32.979300 -5.318220 -24.328900 0.000322 -0.000009 1.245690 4.658850 -14.999700 -22.291500 -0.000108 -0.000004 -1.999870 5.292470 0.282589 -2.192480 -6.469440 -0.000000 -176.011000 3.359920 -0.001156 39.081100 -0.000007 -0.000012 0.298549 -0.632986 25.251600 40.985400 -0.000006 -0.000013 0.908436 6.175730 -74.108200 11.754300 -0.000000 0.000003 -0.000517 0.175922 -9.441010 -2.192510 6.469440 -0.000001 -173.624000 11.458400 -173.645000 -39.081100 -0.002282 -0.040193 0.120359 -0.422814 15.471600 -40.985400 0.000008 0.000006 5.416990 2.747500 -71.365900 -11.754300 -0.000006 -0.000006 -0.011820 0.284436 -5.013580
0.000000 0.000000 0.000000 0.000000 0.000000 -0.000000 -3.847240 92.140900 -0.786083 87.230800 2.344590 6.872630 15.735700 0.000005 -0.000001 87.160000 86.068900 -86.067900 8.984550 -0.406207 -0.000000 0.091853 -0.462560 2.183170 16.377300 -0.000001 -0.000001 10.534800 0.808784 -1.430160 6.456720 -0.000001 -0.000000 -4.102710 -1.004800 4.334220 12.994200 -0.242716 4.980390 -93.616400 9.950250 -69.909000 5.348090 -0.000007 -0.000001 -71.010000 14.654000 -0.352516 24.328600 0.000019 0.000005 14.199400 27.245000 -28.929700 22.291600 -0.000001 0.000005 -8.200660 5.043370 6.382970 12.994500 -0.242716 -4.980390 87.345900 7.268580 -69.877800 -5.348130 -0.000001 -0.000004 -68.965900 33.034900 -5.332190 -24.328900 0.000322 -0.000009 1.221130 4.567530 -14.997500 -22.291500 -0.000108 -0.000004 -2.038560 5.290320 0.342252 -2.192480 -6.469440 -0.000000 -175.996000 3.373410 0.000929 39.081100 -0.000007 -0.000012 0.296383 -0.629775 25.203100 40.985400 -0.000006 -0.000013 0.873301 6.183200 -74.150500 11.754300 -0.000000 0.000003 -0.000623 0.177521 -9.376070 -2.192510 6.469440 -0.000001 -173.608000 11.412000 -173.658000 -39.081100 -0.002282 -0.040193 0.118589 -0.417524 15.432500 -40.985400 0.000008 0.000006 5.359700 2.736510 -71.308400 -11.754300 -0.000006 -0.000006 -0.012073 0.286195 -4.941530
0.000000 0.000000 0.000000 0.000000 0.000000 -0.000000 -3.901320 92.137400 -0.831318 87.180600 2.399860 6.709550 15.735700 0.000005 -0.000001 87.093400 86.095900 -85.982900 8.984550 -0.406207 -0.000000 0.037641 -0.470703 2.219730 16.377300 -0.000001 -0.000001 10.418100 0.778626 -1.449340 6.456720 -0.000001 -0.000000 -4.191890 -1.067780 4.090700 12.994200 -0.242716 4.980390 -93.662200 10.017800 -69.799400 5.348090 -0.000007 -0.000001 -70.585800 12.399300 -0.101909 24.328600 0.000019 0.000005 15.803500 26.148600 -32.710800 22.291600 -0.000001 0.000005 -8.450310 5.030710 6.659510 12.994500 -0.242716 -4.980390 87.356000 7.236400 -69.866500 -5.348130 -0.000001 -0.000004 -69.035100 33.009100 -5.290330 -24.328900 0.000322 -0.000009 1.244810 4.644660 -15.033400 -22.291500 -0.000108 -0.000004 -2.070720 5.289670 0.359875 -2.192480 -6.469440 -0.000000 -175.894000 3.399870 -0.247382 39.081100 -0.000007 -0.000012 0.299218 -0.633607 25.279500 40.985400 -0.000006 -0.000013 0.840536 6.229280 -74.105300 11.754300 -0.000000 0.000003 -0.000428 0.174542 -9.497080 -2.192510 6.469440 -0.000001 -173.469000 11.445700 -173.839000 -39.081100 -0.002282 -0.040193 0.119255 -0.421817 15.367100 -40.985400 0.000008 0.000006 5.518150 2.682290 -71.280900 -11.754300 -0.000006 -0.000006 -0.012022 0.285840 -4.956080
0.000000 0.000000 0.000000 0.000000 0.000000 -0.000000 -3.950750 92.145000 -0.871384 87.173100 2.422250 6.672640 15.735700 0.000005 -0.000001 87.564500 86.083300 -86.445500 8.984550 -0.406207 -0.000000 0.065366 -0.407971 2.236790 16.377300 -0.000001 -0.000001 10.287600 0.658216 -1.479390 6.456720 -0.000001 -0.000000 -4.363420 -1.221640 3.682730 12.994200 -0.242716 4.980390 -93.743400 10.141600 -69.616300 5.348090 -0.000007 -0.000001 -69.916200 10.247900 0.193375 24.328600 0.000019 0.000005 18.031400 24.555200 -38.071000 22.291600 -0.000001 0.000005 -8.502310 5.028100 6.716070 12.994500 -0.242716 -4.980390 87.339500 7.249120 -69.783200 -5.348130 -0.000001 -0.000004 -69.022800 33.036000 -5.238450 -24.328900 0.000322 -0.000009 1.227510 4.557480 -15.103900 -22.291500 -0.000108 -0.000004 -2.030660 5.291120 0.320173 -2.192480 -6.469440 -0.000000 -175.852000 3.413370 -0.323359 39.081100 -0.000007 -0.000012 0.296610 -0.628278 25.272600 40.985400 -0.000006 -0.000013 0.800541 6.223250 -74.089900 11.754300 -0.000000 0.000003 -0.000364 0.173540 -9.537780 -2.192510 6.469440 -0.000001 -173.443000 11.512500 -173.887000 -39.081100 -0.002282 -0.040193 0.117048 -0.414788 15.331600 -40.985400 0.000008 0.000006 5.468780 2.756360 -71.233800 -11.754300 -0.000006 -0.000006 -0.012057 0.286080 -4.946230
